<?xml version="1.0" encoding="UTF-8"?>
<!DOCTYPE svg PUBLIC "-//W3C//DTD SVG 1.1//EN" "http://www.w3.org/Graphics/SVG/1.1/DTD/svg11.dtd">
<svg xmlns="http://www.w3.org/2000/svg" version="1.1" width="69px" height="75px" style="shape-rendering:geometricPrecision; text-rendering:geometricPrecision; image-rendering:optimizeQuality; fill-rule:evenodd; clip-rule:evenodd" xmlns:xlink="http://www.w3.org/1999/xlink">
<g><path style="opacity:0.791" fill="#6b98d1" d="M 23.5,10.5 C 24.6715,11.3446 26.0048,12.0113 27.5,12.5C 24.0542,13.6874 20.3875,14.3541 16.5,14.5C 16.5,13.5 16.5,12.5 16.5,11.5C 18.8056,11.0074 21.139,10.6741 23.5,10.5 Z"/></g>
<g><path style="opacity:1" fill="#f1c6da" d="M 27.5,12.5 C 29.5,12.5 31.5,12.5 33.5,12.5C 33.3314,17.1811 32.9981,21.8478 32.5,26.5C 32.5858,27.4959 32.2524,28.3292 31.5,29C 29.8659,29.4935 28.1992,29.6602 26.5,29.5C 23.5,29.5 20.5,29.5 17.5,29.5C 16.5,29.5 15.5,29.5 14.5,29.5C 15.1015,24.4817 15.7682,19.4817 16.5,14.5C 20.3875,14.3541 24.0542,13.6874 27.5,12.5 Z"/></g>
<g><path style="opacity:1" fill="#6a7eda" d="M 56.5,8.5 C 56.2287,10.3117 55.562,11.9783 54.5,13.5C 53.8333,13.1667 53.1667,12.8333 52.5,12.5C 51.1255,13.7113 49.6255,14.7113 48,15.5C 46.6043,14.6057 45.1043,13.9391 43.5,13.5C 41.9623,13.4534 40.9623,14.1201 40.5,15.5C 38.7376,15.3573 37.0709,15.6906 35.5,16.5C 35.1038,20.2634 34.1038,23.5968 32.5,26.5C 32.9981,21.8478 33.3314,17.1811 33.5,12.5C 31.5,12.5 29.5,12.5 27.5,12.5C 26.0048,12.0113 24.6715,11.3446 23.5,10.5C 27.9926,8.8949 32.326,9.22823 36.5,11.5C 43.1529,10.3353 49.8195,9.33533 56.5,8.5 Z"/></g>
<g><path style="opacity:1" fill="#4660c4" d="M 40.5,15.5 C 41.7175,16.1614 43.0508,16.8281 44.5,17.5C 43.3112,18.4287 41.9778,18.762 40.5,18.5C 40.4326,19.9587 40.7659,21.2921 41.5,22.5C 39.4164,26.3359 37.083,30.0026 34.5,33.5C 32.5,33.5 30.5,33.5 28.5,33.5C 27.7375,32.7321 26.7375,32.2321 25.5,32C 26.2524,31.3292 26.5858,30.4959 26.5,29.5C 28.1992,29.6602 29.8659,29.4935 31.5,29C 32.2524,28.3292 32.5858,27.4959 32.5,26.5C 34.1038,23.5968 35.1038,20.2634 35.5,16.5C 37.0709,15.6906 38.7376,15.3573 40.5,15.5 Z"/></g>
<g><path style="opacity:1" fill="#a3a0ed" d="M 56.5,8.5 C 59.2974,8.96659 60.6308,10.6333 60.5,13.5C 61.2216,13.9175 61.7216,14.5842 62,15.5C 62.6667,19.8333 62.6667,24.1667 62,28.5C 60.2458,30.25 58.0792,30.9167 55.5,30.5C 54.9436,39.5189 54.2769,48.5189 53.5,57.5C 52.8389,55.866 52.5056,54.0326 52.5,52C 53.0746,43.1557 53.7413,34.3223 54.5,25.5C 54.3601,23.9704 53.6935,22.9704 52.5,22.5C 51.8501,22.1961 51.1835,21.8627 50.5,21.5C 48.8076,23.3586 47.3076,25.3586 46,27.5C 45.8455,24.4754 44.3455,22.8087 41.5,22.5C 40.7659,21.2921 40.4326,19.9587 40.5,18.5C 41.9778,18.762 43.3112,18.4287 44.5,17.5C 43.0508,16.8281 41.7175,16.1614 40.5,15.5C 40.9623,14.1201 41.9623,13.4534 43.5,13.5C 45.1043,13.9391 46.6043,14.6057 48,15.5C 49.6255,14.7113 51.1255,13.7113 52.5,12.5C 53.1667,12.8333 53.8333,13.1667 54.5,13.5C 55.562,11.9783 56.2287,10.3117 56.5,8.5 Z"/></g>
<g><path style="opacity:1" fill="#8b87eb" d="M 60.5,13.5 C 61.7612,18.842 61.7612,24.1753 60.5,29.5C 58.8333,29.5 57.1667,29.5 55.5,29.5C 55.2671,23.3937 55.9338,17.3937 57.5,11.5C 58.5178,12.1925 59.5178,12.8592 60.5,13.5 Z"/></g>
<g><path style="opacity:0.943" fill="#648dc9" d="M 17.5,29.5 C 20.5,29.5 23.5,29.5 26.5,29.5C 26.5858,30.4959 26.2524,31.3292 25.5,32C 26.7375,32.2321 27.7375,32.7321 28.5,33.5C 25.7531,33.1866 23.0865,33.52 20.5,34.5C 24.7828,35.4922 29.1161,35.8256 33.5,35.5C 33.1667,36.5 32.5,37.1667 31.5,37.5C 27.4454,37.1758 23.4454,37.5091 19.5,38.5C 23.1073,39.4892 26.774,39.8226 30.5,39.5C 30.5,40.1667 30.5,40.8333 30.5,41.5C 15.8333,42.1667 15.8333,42.8333 30.5,43.5C 27.2557,45.1119 23.589,46.1119 19.5,46.5C 23.0715,47.7063 26.7382,48.373 30.5,48.5C 30.5,49.1667 30.5,49.8333 30.5,50.5C 26.4935,49.3875 22.4935,49.3875 18.5,50.5C 20.7067,51.6348 23.0401,52.3015 25.5,52.5C 26.7914,53.4728 26.7914,54.4728 25.5,55.5C 27.3845,56.1973 27.7178,57.1973 26.5,58.5C 29.7496,58.7852 31.7496,60.4519 32.5,63.5C 25.3253,61.4691 17.992,59.9691 10.5,59C 7.4754,58.8455 5.80873,57.3455 5.5,54.5C 8.1873,54.6641 10.854,54.4974 13.5,54C 14.1258,53.2496 14.6258,52.4162 15,51.5C 16.1634,44.1991 16.9967,36.8658 17.5,29.5 Z"/></g>
<g><path style="opacity:1" fill="#91aae2" d="M 52.5,22.5 C 52.4894,24.0174 51.8228,25.1841 50.5,26C 51.3366,27.0113 51.67,28.1779 51.5,29.5C 50.0222,29.238 48.6888,29.5713 47.5,30.5C 48.325,31.3857 49.325,31.719 50.5,31.5C 50.7148,33.1788 50.0481,34.1788 48.5,34.5C 47.1266,34.3433 45.7932,34.51 44.5,35C 41.6937,39.3062 38.6937,43.4729 35.5,47.5C 33.9547,48.4519 32.288,48.7852 30.5,48.5C 26.7382,48.373 23.0715,47.7063 19.5,46.5C 23.589,46.1119 27.2557,45.1119 30.5,43.5C 30.5,42.8333 30.5,42.1667 30.5,41.5C 30.5,40.8333 30.5,40.1667 30.5,39.5C 31.3382,39.1583 31.6716,38.4916 31.5,37.5C 32.5,37.1667 33.1667,36.5 33.5,35.5C 33.8333,34.8333 34.1667,34.1667 34.5,33.5C 37.083,30.0026 39.4164,26.3359 41.5,22.5C 44.3455,22.8087 45.8455,24.4754 46,27.5C 47.3076,25.3586 48.8076,23.3586 50.5,21.5C 51.1835,21.8627 51.8501,22.1961 52.5,22.5 Z"/></g>
<g><path style="opacity:1" fill="#e0b9d0" d="M 28.5,33.5 C 30.5,33.5 32.5,33.5 34.5,33.5C 34.1667,34.1667 33.8333,34.8333 33.5,35.5C 29.1161,35.8256 24.7828,35.4922 20.5,34.5C 23.0865,33.52 25.7531,33.1866 28.5,33.5 Z"/></g>
<g><path style="opacity:1" fill="#888ae9" d="M 52.5,22.5 C 53.6935,22.9704 54.3601,23.9704 54.5,25.5C 53.7413,34.3223 53.0746,43.1557 52.5,52C 52.5056,54.0326 52.8389,55.866 53.5,57.5C 53.0231,61.318 51.0231,63.818 47.5,65C 42.4996,64.8365 37.4996,64.3365 32.5,63.5C 31.7496,60.4519 29.7496,58.7852 26.5,58.5C 27.7178,57.1973 27.3845,56.1973 25.5,55.5C 26.7914,54.4728 26.7914,53.4728 25.5,52.5C 26.1667,52.5 26.8333,52.5 27.5,52.5C 29.5625,53.7763 31.8958,54.6097 34.5,55C 32.1282,56.4705 32.1282,57.6372 34.5,58.5C 39.1872,59.7764 43.8538,59.7764 48.5,58.5C 49.6139,57.277 49.7805,55.9437 49,54.5C 43.7382,49.785 42.4049,44.1183 45,37.5C 46.5185,36.8366 47.6851,35.8366 48.5,34.5C 50.0481,34.1788 50.7148,33.1788 50.5,31.5C 49.325,31.719 48.325,31.3857 47.5,30.5C 48.6888,29.5713 50.0222,29.238 51.5,29.5C 51.67,28.1779 51.3366,27.0113 50.5,26C 51.8228,25.1841 52.4894,24.0174 52.5,22.5 Z"/></g>
<g><path style="opacity:1" fill="#e1bcd2" d="M 31.5,37.5 C 31.6716,38.4916 31.3382,39.1583 30.5,39.5C 26.774,39.8226 23.1073,39.4892 19.5,38.5C 23.4454,37.5091 27.4454,37.1758 31.5,37.5 Z"/></g>
<g><path style="opacity:1" fill="#dfbbd2" d="M 30.5,41.5 C 30.5,42.1667 30.5,42.8333 30.5,43.5C 15.8333,42.8333 15.8333,42.1667 30.5,41.5 Z"/></g>
<g><path style="opacity:1" fill="#c4a7cc" d="M 30.5,50.5 C 32.1667,50.5 33.8333,50.5 35.5,50.5C 35.5,51.5 35.5,52.5 35.5,53.5C 32.8333,53.1667 30.1667,52.8333 27.5,52.5C 26.8333,52.5 26.1667,52.5 25.5,52.5C 23.0401,52.3015 20.7067,51.6348 18.5,50.5C 22.4935,49.3875 26.4935,49.3875 30.5,50.5 Z"/></g>
<g><path style="opacity:1" fill="#6c7ee7" d="M 48.5,34.5 C 47.6851,35.8366 46.5185,36.8366 45,37.5C 42.4049,44.1183 43.7382,49.785 49,54.5C 49.7805,55.9437 49.6139,57.277 48.5,58.5C 43.8538,59.7764 39.1872,59.7764 34.5,58.5C 32.1282,57.6372 32.1282,56.4705 34.5,55C 31.8958,54.6097 29.5625,53.7763 27.5,52.5C 30.1667,52.8333 32.8333,53.1667 35.5,53.5C 35.5,52.5 35.5,51.5 35.5,50.5C 33.8333,50.5 32.1667,50.5 30.5,50.5C 30.5,49.8333 30.5,49.1667 30.5,48.5C 32.288,48.7852 33.9547,48.4519 35.5,47.5C 38.6937,43.4729 41.6937,39.3062 44.5,35C 45.7932,34.51 47.1266,34.3433 48.5,34.5 Z"/></g>
</svg>
