<?xml version="1.0" encoding="UTF-8"?>
<!DOCTYPE svg PUBLIC "-//W3C//DTD SVG 1.1//EN" "http://www.w3.org/Graphics/SVG/1.1/DTD/svg11.dtd">
<svg xmlns="http://www.w3.org/2000/svg" version="1.1" width="40px" height="40px" style="shape-rendering:geometricPrecision; text-rendering:geometricPrecision; image-rendering:optimizeQuality; fill-rule:evenodd; clip-rule:evenodd" xmlns:xlink="http://www.w3.org/1999/xlink">
<g><path style="opacity:0.884" fill="#ff7368" d="M 4.5,4.5 C 4.17265,14.6806 4.50598,24.6806 5.5,34.5C 10.8333,34.1667 10.8333,33.8333 5.5,33.5C 5.5,31.1667 5.5,28.8333 5.5,26.5C 7.16667,26.5 8.83333,26.5 10.5,26.5C 10.5,29.1667 10.5,31.8333 10.5,34.5C 18.84,34.3336 27.1733,34.5003 35.5,35C 24.8385,35.4998 14.1719,35.6665 3.5,35.5C 3.16769,24.4166 3.50102,14.0833 4.5,4.5 Z"/></g>
<g><path style="opacity:0.831" fill="#ff7468" d="M 31.5,13.5 C 29.8437,15.4602 28.177,17.4602 26.5,19.5C 25.8333,19.5 25.5,19.8333 25.5,20.5C 24.8333,20.5 24.5,20.8333 24.5,21.5C 22.9731,21.427 21.9731,22.0937 21.5,23.5C 20.5084,23.3284 19.8417,23.6618 19.5,24.5C 14.6764,24.9924 10.0097,25.659 5.5,26.5C 5.5,28.8333 5.5,31.1667 5.5,33.5C 5.5,33.8333 5.5,34.1667 5.5,34.5C 4.50598,24.6806 4.17265,14.6806 4.5,4.5C 5.48886,9.97533 5.8222,15.642 5.5,21.5C 16.5815,23.1277 24.2482,18.7943 28.5,8.5C 27.9747,7.80762 27.3081,7.30762 26.5,7C 29.1082,2.71599 31.7748,2.54932 34.5,6.5C 32.5281,8.41528 31.5281,10.7486 31.5,13.5 Z"/></g>
<g><path style="opacity:0.966" fill="#ff7468" d="M 31.5,13.5 C 32.4793,12.2347 33.4793,10.9014 34.5,9.5C 35.4977,17.4723 35.831,25.4723 35.5,33.5C 33.8561,33.7135 32.3561,33.3802 31,32.5C 30.2489,26.1163 30.4156,19.783 31.5,13.5 Z"/></g>
<g><path style="opacity:0.867" fill="#ff7468" d="M 24.5,21.5 C 25.1667,21.5 25.5,21.1667 25.5,20.5C 26.1667,20.5 26.5,20.1667 26.5,19.5C 27.4959,19.5858 28.3292,19.2524 29,18.5C 29.4993,23.4889 29.6659,28.4889 29.5,33.5C 27.8333,33.5 26.1667,33.5 24.5,33.5C 24.5,29.5 24.5,25.5 24.5,21.5 Z"/></g>
<g><path style="opacity:0.83" fill="#ff7468" d="M 21.5,23.5 C 23.4023,26.3373 24.069,29.6707 23.5,33.5C 21.8333,33.5 20.1667,33.5 18.5,33.5C 18.2641,30.3915 18.5975,27.3915 19.5,24.5C 20.4916,24.6716 21.1583,24.3382 21.5,23.5 Z"/></g>
<g><path style="opacity:0.831" fill="#ff7469" d="M 11.5,26.5 C 13.1667,26.5 14.8333,26.5 16.5,26.5C 16.5,28.8333 16.5,31.1667 16.5,33.5C 14.8333,33.5 13.1667,33.5 11.5,33.5C 11.5,31.1667 11.5,28.8333 11.5,26.5 Z"/></g>
</svg>
