<?xml version="1.0" encoding="UTF-8"?>
<!DOCTYPE svg PUBLIC "-//W3C//DTD SVG 1.1//EN" "http://www.w3.org/Graphics/SVG/1.1/DTD/svg11.dtd">
<svg xmlns="http://www.w3.org/2000/svg" version="1.1" width="40px" height="40px" style="shape-rendering:geometricPrecision; text-rendering:geometricPrecision; image-rendering:optimizeQuality; fill-rule:evenodd; clip-rule:evenodd" xmlns:xlink="http://www.w3.org/1999/xlink">
<g><path style="opacity:0.893" fill="#ff7368" d="M 14.5,3.5 C 22.7841,2.53764 29.6175,5.20431 35,11.5C 35.4955,13.4727 35.6621,15.4727 35.5,17.5C 33.146,17.838 30.8127,18.338 28.5,19C 30.4758,22.4526 32.3091,25.9526 34,29.5C 34.6514,31.235 34.4847,32.9017 33.5,34.5C 24.1845,35.6654 14.8511,35.8321 5.5,35C 4.11509,28.8158 5.78176,23.4824 10.5,19C 8.23815,18.3581 6.07148,17.5248 4,16.5C 3.33333,14.5 3.33333,12.5 4,10.5C 7.15402,7.48842 10.654,5.15508 14.5,3.5 Z M 24.5,15.5 C 21.8791,13.8742 20.0457,14.5409 19,17.5C 18.5172,16.552 18.3505,15.552 18.5,14.5C 17.1667,14.5 15.8333,14.5 14.5,14.5C 14.33,13.1779 14.6634,12.0113 15.5,11C 18.146,10.5026 20.8127,10.3359 23.5,10.5C 23.6287,12.2161 23.962,13.8828 24.5,15.5 Z M 13.5,15.5 C 14.7733,16.0768 14.7733,16.7435 13.5,17.5C 12.537,17.0302 12.537,16.3635 13.5,15.5 Z M 24.5,15.5 C 25.2891,15.7828 25.9558,16.2828 26.5,17C 25.184,17.5281 24.5173,17.0281 24.5,15.5 Z"/></g>
</svg>
