<?xml version="1.0" encoding="UTF-8"?>
<!DOCTYPE svg PUBLIC "-//W3C//DTD SVG 1.1//EN" "http://www.w3.org/Graphics/SVG/1.1/DTD/svg11.dtd">
<svg xmlns="http://www.w3.org/2000/svg" version="1.1" width="180px" height="180px" style="shape-rendering:geometricPrecision; text-rendering:geometricPrecision; image-rendering:optimizeQuality; fill-rule:evenodd; clip-rule:evenodd" xmlns:xlink="http://www.w3.org/1999/xlink">
<g><path style="opacity:1" fill="#ff7469" d="M -0.5,-0.5 C 59.5,-0.5 119.5,-0.5 179.5,-0.5C 179.5,59.5 179.5,119.5 179.5,179.5C 119.5,179.5 59.5,179.5 -0.5,179.5C -0.5,119.5 -0.5,59.5 -0.5,-0.5 Z"/></g>
<g><path style="opacity:1" fill="#fffbfa" d="M 79.5,148.5 C 76.4954,146.723 73.1621,145.723 69.5,145.5C 63.8246,143.328 58.4913,140.495 53.5,137C 43.9321,128.102 35.0988,118.602 27,108.5C 10.5834,73.5482 18.0834,45.0482 49.5,23C 62.9789,15.8397 77.3123,13.5064 92.5,16C 101.937,18.3857 110.603,22.3857 118.5,28C 128.777,37.2711 137.943,47.4378 146,58.5C 153.852,75.5389 154.518,92.8722 148,110.5C 147.333,112.167 147.333,113.833 148,115.5C 153.377,121.208 158.377,127.208 163,133.5C 166.708,143.264 164.208,151.097 155.5,157C 148.473,160.272 141.473,160.272 134.5,157C 127.652,149.985 120.652,143.152 113.5,136.5C 111.957,139.086 110.291,141.586 108.5,144C 106.044,145.711 103.377,147.044 100.5,148C 93.5079,148.5 86.5079,148.666 79.5,148.5 Z"/></g>
<g><path style="opacity:1" fill="#ff766b" d="M 69.5,101.5 C 64.6329,102.411 60.6329,101.078 57.5,97.5C 56.5078,94.2214 56.3412,90.8881 57,87.5C 61.1817,83.1399 66.0151,79.8066 71.5,77.5C 78.5,76.1667 85.5,76.1667 92.5,77.5C 98.9552,80.5991 104.622,84.9324 109.5,90.5C 111.401,88.2716 112.401,85.6049 112.5,82.5C 113.163,80.5274 113.496,78.3608 113.5,76C 113.672,72.5226 113.006,69.356 111.5,66.5C 107.678,56.5123 100.678,49.6789 90.5,46C 67.9776,41.5083 53.811,50.3416 48,72.5C 46.5634,82.6887 49.3967,91.3554 56.5,98.5C 57.9108,100.914 59.9108,102.581 62.5,103.5C 65.3203,106.081 68.6536,107.914 72.5,109C 77.5,109.333 82.5,109.667 87.5,110C 94.0112,111.882 96.1779,116.049 94,122.5C 92.8881,125.278 91.0547,127.445 88.5,129C 62.566,131.119 43.7326,120.619 32,97.5C 22.2144,63.2408 33.7144,39.4075 66.5,26C 95.8333,21.0825 117,31.9158 130,58.5C 134.706,75.0061 132.872,90.6728 124.5,105.5C 130.819,112.319 137.319,118.986 144,125.5C 145.447,136.053 140.947,140.553 130.5,139C 116.195,125.696 102.195,112.029 88.5,98C 85.1191,95.7552 81.4525,95.0885 77.5,96C 74.9528,98.054 72.2861,99.8874 69.5,101.5 Z"/></g>
<g><path style="opacity:1" fill="#fffbfb" d="M 111.5,66.5 C 112.275,71.7968 112.608,77.1301 112.5,82.5C 112.401,85.6049 111.401,88.2716 109.5,90.5C 104.622,84.9324 98.9552,80.5991 92.5,77.5C 89.3048,75.9704 85.8048,75.3037 82,75.5C 78.1952,75.3037 74.6952,75.9704 71.5,77.5C 66.0151,79.8066 61.1817,83.1399 57,87.5C 56.3412,90.8881 56.5078,94.2214 57.5,97.5C 57.5,98.1667 57.1667,98.5 56.5,98.5C 49.3967,91.3554 46.5634,82.6887 48,72.5C 53.811,50.3416 67.9776,41.5083 90.5,46C 100.678,49.6789 107.678,56.5123 111.5,66.5 Z"/></g>
<g><path style="opacity:1" fill="#ffd5d1" d="M 87.5,64.5 C 90.6399,63.3592 93.9733,63.1925 97.5,64C 98.9423,64.3768 99.9423,65.2101 100.5,66.5C 96.3263,64.936 91.993,64.2694 87.5,64.5 Z"/></g>
<g><path style="opacity:1" fill="#ff8277" d="M 87.5,64.5 C 91.993,64.2694 96.3263,64.936 100.5,66.5C 102.561,67.7514 102.894,69.4181 101.5,71.5C 95.5797,68.2696 89.2464,66.4363 82.5,66C 83.9047,64.7308 85.5714,64.2308 87.5,64.5 Z"/></g>
<g><path style="opacity:1" fill="#ffb5af" d="M 92.5,77.5 C 85.5,76.1667 78.5,76.1667 71.5,77.5C 74.6952,75.9704 78.1952,75.3037 82,75.5C 85.8048,75.3037 89.3048,75.9704 92.5,77.5 Z"/></g>
<g><path style="opacity:1" fill="#ffbab4" d="M 111.5,66.5 C 113.006,69.356 113.672,72.5226 113.5,76C 113.496,78.3608 113.163,80.5274 112.5,82.5C 112.608,77.1301 112.275,71.7968 111.5,66.5 Z"/></g>
<g><path style="opacity:1" fill="#ffd8d5" d="M 57.5,97.5 C 60.6329,101.078 64.6329,102.411 69.5,101.5C 67.1667,102.167 64.8333,102.833 62.5,103.5C 59.9108,102.581 57.9108,100.914 56.5,98.5C 57.1667,98.5 57.5,98.1667 57.5,97.5 Z"/></g>
<g><path style="opacity:1" fill="#ffccc7" d="M 69.5,145.5 C 73.1621,145.723 76.4954,146.723 79.5,148.5C 75.8379,148.277 72.5046,147.277 69.5,145.5 Z"/></g>
</svg>
