<?xml version="1.0" encoding="UTF-8"?>
<!DOCTYPE svg PUBLIC "-//W3C//DTD SVG 1.1//EN" "http://www.w3.org/Graphics/SVG/1.1/DTD/svg11.dtd">
<svg xmlns="http://www.w3.org/2000/svg" version="1.1" width="42px" height="42px" style="shape-rendering:geometricPrecision; text-rendering:geometricPrecision; image-rendering:optimizeQuality; fill-rule:evenodd; clip-rule:evenodd" xmlns:xlink="http://www.w3.org/1999/xlink">
<g><path style="opacity:0.992" fill="#fce575" d="M 11.5,0.5 C 37.1022,-2.05931 45.9356,8.94069 38,33.5C 35.6351,36.8691 32.4685,39.0357 28.5,40C 3.38296,42.5304 -5.11704,31.6971 3,7.5C 5.44117,4.54644 8.27451,2.21311 11.5,0.5 Z"/></g>
<g><path style="opacity:1" fill="#2e2a17" d="M 26.5,8.5 C 21.7143,7.0748 17.0477,7.40813 12.5,9.5C 14.3318,7.10576 16.8318,6.10576 20,6.5C 22.5437,6.33601 24.7103,7.00268 26.5,8.5 Z"/></g>
<g><path style="opacity:1" fill="#efd96e" d="M 26.5,8.5 C 27.4916,8.32842 28.1583,8.66175 28.5,9.5C 29.0798,11.7488 30.4131,13.4154 32.5,14.5C 34.1667,28.1667 28.1667,34.1667 14.5,32.5C 13.4154,30.4131 11.7488,29.0798 9.5,28.5C 8.66175,28.1583 8.32842,27.4916 8.5,26.5C 7.0748,21.7143 7.40813,17.0477 9.5,12.5C 10.8333,11.8333 11.8333,10.8333 12.5,9.5C 17.0477,7.40813 21.7143,7.0748 26.5,8.5 Z"/></g>
<g><path style="opacity:1" fill="#2c2817" d="M 12.5,9.5 C 11.8333,10.8333 10.8333,11.8333 9.5,12.5C 9.5,10.5 10.5,9.5 12.5,9.5 Z"/></g>
<g><path style="opacity:1" fill="#504928" d="M 28.5,9.5 C 30.5869,10.5846 31.9202,12.2512 32.5,14.5C 30.4131,13.4154 29.0798,11.7488 28.5,9.5 Z"/></g>
<g><path style="opacity:1" fill="#141109" d="M 15.5,19.5 C 14.8333,19.5 14.1667,19.5 13.5,19.5C 11.9652,16.6702 12.9652,15.3369 16.5,15.5C 16.7678,17.099 16.4345,18.4324 15.5,19.5 Z"/></g>
<g><path style="opacity:1" fill="#141209" d="M 27.5,19.5 C 26.5,19.5 25.5,19.5 24.5,19.5C 22.4683,19.4785 20.3017,19.1452 18,18.5C 18.3101,13.0147 20.3101,12.348 24,16.5C 27.5966,14.9339 28.7632,15.9339 27.5,19.5 Z"/></g>
<g><path style="opacity:1" fill="#8b7e40" d="M 13.5,19.5 C 14.1667,19.5 14.8333,19.5 15.5,19.5C 15.8333,20.1667 16.1667,20.8333 16.5,21.5C 16.5,22.1667 16.1667,22.5 15.5,22.5C 14.791,21.596 13.791,21.2627 12.5,21.5C 12.8333,20.8333 13.1667,20.1667 13.5,19.5 Z"/></g>
<g><path style="opacity:1" fill="#100e06" d="M 12.5,21.5 C 13.791,21.2627 14.791,21.596 15.5,22.5C 14.596,23.209 14.2627,24.209 14.5,25.5C 13.5,25.5 12.5,25.5 11.5,25.5C 10.1472,23.8716 10.4805,22.5383 12.5,21.5 Z"/></g>
<g><path style="opacity:1" fill="#040401" d="M 16.5,21.5 C 19.1667,21.5 21.8333,21.5 24.5,21.5C 25.038,23.1172 25.3713,24.7839 25.5,26.5C 22.1667,27.8333 18.8333,27.8333 15.5,26.5C 15.5,25.1667 15.5,23.8333 15.5,22.5C 16.1667,22.5 16.5,22.1667 16.5,21.5 Z"/></g>
<g><path style="opacity:1" fill="#060502" d="M 28.5,21.5 C 29.4345,22.5676 29.7678,23.901 29.5,25.5C 28.5,25.5 27.5,25.5 26.5,25.5C 26.67,24.1779 26.3366,23.0113 25.5,22C 26.448,21.5172 27.448,21.3505 28.5,21.5 Z"/></g>
<g><path style="opacity:1" fill="#84783d" d="M 24.5,19.5 C 25.5,19.5 26.5,19.5 27.5,19.5C 27.8333,20.1667 28.1667,20.8333 28.5,21.5C 27.448,21.3505 26.448,21.5172 25.5,22C 26.3366,23.0113 26.67,24.1779 26.5,25.5C 27.5,25.5 28.5,25.5 29.5,25.5C 28.4324,26.4345 27.099,26.7678 25.5,26.5C 25.3713,24.7839 25.038,23.1172 24.5,21.5C 24.5,20.8333 24.5,20.1667 24.5,19.5 Z"/></g>
<g><path style="opacity:1" fill="#38331c" d="M 9.5,12.5 C 7.40813,17.0477 7.0748,21.7143 8.5,26.5C 7.88258,26.3893 7.38258,26.056 7,25.5C 6.33333,22.1667 6.33333,18.8333 7,15.5C 7.37675,14.0577 8.21009,13.0577 9.5,12.5 Z"/></g>
<g><path style="opacity:1" fill="#81753b" d="M 15.5,22.5 C 15.5,23.8333 15.5,25.1667 15.5,26.5C 13.901,26.7678 12.5676,26.4345 11.5,25.5C 12.5,25.5 13.5,25.5 14.5,25.5C 14.2627,24.209 14.596,23.209 15.5,22.5 Z"/></g>
<g><path style="opacity:1" fill="#504928" d="M 9.5,28.5 C 11.7488,29.0798 13.4154,30.4131 14.5,32.5C 12.2512,31.9202 10.5846,30.5869 9.5,28.5 Z"/></g>
<g><path style="opacity:1" fill="#413b1f" d="M 32.5,14.5 C 36.1943,23.8738 33.1943,30.3738 23.5,34C 20.1368,34.9274 17.1368,34.4274 14.5,32.5C 28.1667,34.1667 34.1667,28.1667 32.5,14.5 Z"/></g>
</svg>
