<svg xmlns="http://www.w3.org/2000/svg" xmlns:xlink="http://www.w3.org/1999/xlink" width="69" height="75" version="1.1" style="shape-rendering:geometricPrecision;text-rendering:geometricPrecision;image-rendering:optimizeQuality;fill-rule:evenodd;clip-rule:evenodd"><g><path style="opacity:.994" fill="#f3d2fd" d="M 14.5,12.5 C 14.6107,13.1174 14.944,13.6174 15.5,14C 12.7605,15.0497 11.2605,16.883 11,19.5C 12.5123,17.0426 13.8456,17.0426 15,19.5C 15.3333,19.1667 15.6667,18.8333 16,18.5C 17.4411,19.2598 18.9411,19.9264 20.5,20.5C 23.3244,20.1471 25.991,20.1471 28.5,20.5C 27.5,21.8333 26.5,23.1667 25.5,24.5C 25.3379,26.5273 25.5045,28.5273 26,30.5C 26.3826,31.056 26.8826,31.3893 27.5,31.5C 27.8333,32.1667 28.1667,32.8333 28.5,33.5C 24.8638,36.1088 21.3638,39.1088 18,42.5C 17.2086,43.745 16.7086,45.0783 16.5,46.5C 15.2749,47.1522 14.6083,48.3189 14.5,50C 15.3597,53.2014 17.3597,55.5348 20.5,57C 26.1667,57.6667 31.8333,57.6667 37.5,57C 41.2452,56.2093 44.5785,54.7093 47.5,52.5C 48.1667,52.5 48.5,52.1667 48.5,51.5C 49.404,50.791 49.7373,49.791 49.5,48.5C 51.0072,50.2894 52.3405,52.2894 53.5,54.5C 55.6895,52.99 57.0228,50.99 57.5,48.5C 57.8711,52.0034 56.8711,55.0034 54.5,57.5C 52.7446,58.0722 51.0779,58.9055 49.5,60C 37.8333,60.6667 26.1667,60.6667 14.5,60C 12.9221,58.9055 11.2554,58.0722 9.5,57.5C 7.67197,54.865 6.50531,51.865 6,48.5C 5.33333,41.1667 5.33333,33.8333 6,26.5C 6.06597,20.016 8.8993,15.3493 14.5,12.5 Z"/></g><g><path style="opacity:1" fill="#d4dfb8" d="M 61.5,17.5 C 61.631,18.2389 61.4643,18.9056 61,19.5C 60.3292,18.7476 59.4959,18.4142 58.5,18.5C 58.5299,17.5028 58.0299,16.8361 57,16.5C 55.3008,18.533 53.3008,20.1996 51,21.5C 49.4329,20.1439 47.5996,19.4772 45.5,19.5C 45.3505,20.552 45.5172,21.552 46,22.5C 47.9923,23.3281 49.4923,24.6614 50.5,26.5C 48.5487,27.6414 46.5487,27.6414 44.5,26.5C 41.5113,21.419 42.178,16.7523 46.5,12.5C 53.2226,8.80083 58.2226,10.4675 61.5,17.5 Z"/></g><g><path style="opacity:1" fill="#f6d8fb" d="M 58.5,18.5 C 56.1667,21.5 53.5,24.1667 50.5,26.5C 49.4923,24.6614 47.9923,23.3281 46,22.5C 45.5172,21.552 45.3505,20.552 45.5,19.5C 47.5996,19.4772 49.4329,20.1439 51,21.5C 53.3008,20.1996 55.3008,18.533 57,16.5C 58.0299,16.8361 58.5299,17.5028 58.5,18.5 Z"/></g><g><path style="opacity:1" fill="#c2da9e" d="M 61.5,17.5 C 62.6291,19.6282 62.7958,21.9615 62,24.5C 60.8236,26.1957 59.657,27.8624 58.5,29.5C 55.2011,30.3761 51.8678,30.5428 48.5,30C 46.6763,29.34 45.343,28.1733 44.5,26.5C 46.5487,27.6414 48.5487,27.6414 50.5,26.5C 53.5,24.1667 56.1667,21.5 58.5,18.5C 59.4959,18.4142 60.3292,18.7476 61,19.5C 61.4643,18.9056 61.631,18.2389 61.5,17.5 Z"/></g><g><path style="opacity:1" fill="#cca6fe" d="M 37.5,31.5 C 37.5,30.5 37.5,29.5 37.5,28.5C 34.5,28.5 31.5,28.5 28.5,28.5C 28.9118,26.0274 27.9118,24.6941 25.5,24.5C 26.5,23.1667 27.5,21.8333 28.5,20.5C 34.5767,18.5395 38.2434,20.7062 39.5,27C 39.4753,28.876 38.8086,30.376 37.5,31.5 Z"/></g><g><path style="opacity:1" fill="#9169f5" d="M 25.5,24.5 C 27.9118,24.6941 28.9118,26.0274 28.5,28.5C 31.5,28.5 34.5,28.5 37.5,28.5C 37.5,29.5 37.5,30.5 37.5,31.5C 37.5,32.1667 37.1667,32.5 36.5,32.5C 34.3168,30.7657 31.6502,29.7657 28.5,29.5C 27.7025,29.9569 27.3691,30.6236 27.5,31.5C 26.8826,31.3893 26.3826,31.056 26,30.5C 25.5045,28.5273 25.3379,26.5273 25.5,24.5 Z"/></g><g><path style="opacity:1" fill="#f6d6fd" d="M 46.5,12.5 C 42.178,16.7523 41.5113,21.419 44.5,26.5C 45.343,28.1733 46.6763,29.34 48.5,30C 51.8678,30.5428 55.2011,30.3761 58.5,29.5C 58.7054,35.8778 58.3721,42.2111 57.5,48.5C 57.0228,50.99 55.6895,52.99 53.5,54.5C 52.3405,52.2894 51.0072,50.2894 49.5,48.5C 47.5658,42.2335 43.5658,37.9001 37.5,35.5C 36.1667,35.5 35.5,34.8333 35.5,33.5C 35.5,32.8333 35.8333,32.5 36.5,32.5C 37.1667,32.5 37.5,32.1667 37.5,31.5C 38.8086,30.376 39.4753,28.876 39.5,27C 38.2434,20.7062 34.5767,18.5395 28.5,20.5C 25.991,20.1471 23.3244,20.1471 20.5,20.5C 18.9411,19.9264 17.4411,19.2598 16,18.5C 15.6667,18.8333 15.3333,19.1667 15,19.5C 13.8456,17.0426 12.5123,17.0426 11,19.5C 11.2605,16.883 12.7605,15.0497 15.5,14C 14.944,13.6174 14.6107,13.1174 14.5,12.5C 25.3037,9.8923 35.9703,9.8923 46.5,12.5 Z"/></g><g><path style="opacity:1" fill="#5e21ef" d="M 36.5,32.5 C 35.8333,32.5 35.5,32.8333 35.5,33.5C 33.2078,34.6861 30.8744,34.6861 28.5,33.5C 28.1667,32.8333 27.8333,32.1667 27.5,31.5C 27.3691,30.6236 27.7025,29.9569 28.5,29.5C 31.6502,29.7657 34.3168,30.7657 36.5,32.5 Z"/></g><g><path style="opacity:1" fill="#b68ef9" d="M 28.5,33.5 C 30.8744,34.6861 33.2078,34.6861 35.5,33.5C 35.5,34.8333 36.1667,35.5 37.5,35.5C 34.5546,37.1611 31.2213,38.3278 27.5,39C 24.0434,42.4258 24.3767,45.7591 28.5,49C 35.3289,49.7296 41.9956,50.5629 48.5,51.5C 48.5,52.1667 48.1667,52.5 47.5,52.5C 37.1613,52.6665 26.828,52.4998 16.5,52C 15.2475,50.1722 15.2475,48.3388 16.5,46.5C 16.7086,45.0783 17.2086,43.745 18,42.5C 21.3638,39.1088 24.8638,36.1088 28.5,33.5 Z"/></g><g><path style="opacity:1" fill="#d7b2ff" d="M 37.5,35.5 C 43.5658,37.9001 47.5658,42.2335 49.5,48.5C 49.7373,49.791 49.404,50.791 48.5,51.5C 41.9956,50.5629 35.3289,49.7296 28.5,49C 24.3767,45.7591 24.0434,42.4258 27.5,39C 31.2213,38.3278 34.5546,37.1611 37.5,35.5 Z"/></g><g><path style="opacity:1" fill="#ccafe7" d="M 16.5,46.5 C 15.2475,48.3388 15.2475,50.1722 16.5,52C 26.828,52.4998 37.1613,52.6665 47.5,52.5C 44.5785,54.7093 41.2452,56.2093 37.5,57C 31.8333,57.6667 26.1667,57.6667 20.5,57C 17.3597,55.5348 15.3597,53.2014 14.5,50C 14.6083,48.3189 15.2749,47.1522 16.5,46.5 Z"/></g><g><path style="opacity:1" fill="#c3a6d5" d="M 9.5,57.5 C 11.2554,58.0722 12.9221,58.9055 14.5,60C 26.1667,60.6667 37.8333,60.6667 49.5,60C 51.0779,58.9055 52.7446,58.0722 54.5,57.5C 52.8802,59.9842 50.5469,61.4842 47.5,62C 37.1751,63.9705 26.8418,63.9705 16.5,62C 13.4531,61.4842 11.1198,59.9842 9.5,57.5 Z"/></g></svg>