<?xml version="1.0" encoding="UTF-8"?>
<!DOCTYPE svg PUBLIC "-//W3C//DTD SVG 1.1//EN" "http://www.w3.org/Graphics/SVG/1.1/DTD/svg11.dtd">
<svg xmlns="http://www.w3.org/2000/svg" version="1.1" width="1410px" height="357px" style="shape-rendering:geometricPrecision; text-rendering:geometricPrecision; image-rendering:optimizeQuality; fill-rule:evenodd; clip-rule:evenodd" xmlns:xlink="http://www.w3.org/1999/xlink">
<g><path style="opacity:1" fill="#e6cccc" d="M -0.5,-0.5 C 408.5,-0.5 817.5,-0.5 1226.5,-0.5C 1211.83,38.4437 1216.99,74.4437 1242,107.5C 1253.07,117.447 1263.57,127.947 1273.5,139C 1296.56,157.685 1322.9,165.018 1352.5,161C 1364.32,158.508 1372.49,151.675 1377,140.5C 1387.7,151.369 1398.53,162.035 1409.5,172.5C 1409.5,233.833 1409.5,295.167 1409.5,356.5C 939.5,356.5 469.5,356.5 -0.5,356.5C -0.5,237.5 -0.5,118.5 -0.5,-0.5 Z"/></g>
<g><path style="opacity:1" fill="#fbf8f8" d="M 1226.5,-0.5 C 1232.5,-0.5 1238.5,-0.5 1244.5,-0.5C 1231.39,27.1037 1231.22,54.7704 1244,82.5C 1264.4,116.95 1294.57,132.117 1334.5,128C 1344.91,122.521 1347.75,114.354 1343,103.5C 1340.34,99.839 1336.84,97.339 1332.5,96C 1301.98,98.4601 1280.81,85.6267 1269,57.5C 1262.93,34.0291 1269.1,14.6958 1287.5,-0.5C 1310.5,-0.5 1333.5,-0.5 1356.5,-0.5C 1376.79,18.0159 1381.63,40.0159 1371,65.5C 1363.22,55.7137 1353.72,48.2137 1342.5,43C 1321.19,35.7145 1302.52,39.8812 1286.5,55.5C 1279.41,64.5732 1280.08,73.0732 1288.5,81C 1297.79,85.4718 1305.79,83.8052 1312.5,76C 1319.83,71.3333 1327.17,71.3333 1334.5,76C 1357.61,99.4435 1380.94,122.444 1404.5,145C 1406.02,146.009 1407.69,146.509 1409.5,146.5C 1409.5,155.167 1409.5,163.833 1409.5,172.5C 1398.53,162.035 1387.7,151.369 1377,140.5C 1372.49,151.675 1364.32,158.508 1352.5,161C 1322.9,165.018 1296.56,157.685 1273.5,139C 1263.57,127.947 1253.07,117.447 1242,107.5C 1216.99,74.4437 1211.83,38.4437 1226.5,-0.5 Z"/></g>
<g><path style="opacity:1" fill="#e6cccc" d="M 1244.5,-0.5 C 1258.83,-0.5 1273.17,-0.5 1287.5,-0.5C 1269.1,14.6958 1262.93,34.0291 1269,57.5C 1280.81,85.6267 1301.98,98.4601 1332.5,96C 1336.84,97.339 1340.34,99.839 1343,103.5C 1347.75,114.354 1344.91,122.521 1334.5,128C 1294.57,132.117 1264.4,116.95 1244,82.5C 1231.22,54.7704 1231.39,27.1037 1244.5,-0.5 Z"/></g>
<g><path style="opacity:1" fill="#e6cccc" d="M 1356.5,-0.5 C 1370.5,-0.5 1384.5,-0.5 1398.5,-0.5C 1403.94,9.67296 1407.6,20.3396 1409.5,31.5C 1409.5,37.5 1409.5,43.5 1409.5,49.5C 1407.55,63.5014 1402.89,76.6681 1395.5,89C 1399.66,94.3241 1404.32,99.1575 1409.5,103.5C 1409.5,117.833 1409.5,132.167 1409.5,146.5C 1407.69,146.509 1406.02,146.009 1404.5,145C 1380.94,122.444 1357.61,99.4435 1334.5,76C 1327.17,71.3333 1319.83,71.3333 1312.5,76C 1305.79,83.8052 1297.79,85.4718 1288.5,81C 1280.08,73.0732 1279.41,64.5732 1286.5,55.5C 1302.52,39.8812 1321.19,35.7145 1342.5,43C 1353.72,48.2137 1363.22,55.7137 1371,65.5C 1381.63,40.0159 1376.79,18.0159 1356.5,-0.5 Z"/></g>
<g><path style="opacity:1" fill="#fbf7f7" d="M 1398.5,-0.5 C 1402.17,-0.5 1405.83,-0.5 1409.5,-0.5C 1409.5,10.1667 1409.5,20.8333 1409.5,31.5C 1407.6,20.3396 1403.94,9.67296 1398.5,-0.5 Z"/></g>
<g><path style="opacity:1" fill="#e7cfcf" d="M 1333.5,19.5 C 1341.19,19.2286 1348.52,20.7286 1355.5,24C 1358.28,26.9939 1359.44,30.4939 1359,34.5C 1348.37,27.1084 1336.53,23.6084 1323.5,24C 1326.86,22.3878 1330.19,20.8878 1333.5,19.5 Z"/></g>
<g><path style="opacity:1" fill="#fbf7f7" d="M 1409.5,49.5 C 1409.5,67.5 1409.5,85.5 1409.5,103.5C 1404.32,99.1575 1399.66,94.3241 1395.5,89C 1402.89,76.6681 1407.55,63.5014 1409.5,49.5 Z"/></g>
</svg>
