<?xml version="1.0" encoding="UTF-8"?>
<!DOCTYPE svg PUBLIC "-//W3C//DTD SVG 1.1//EN" "http://www.w3.org/Graphics/SVG/1.1/DTD/svg11.dtd">
<svg xmlns="http://www.w3.org/2000/svg" version="1.1" width="40px" height="40px" style="shape-rendering:geometricPrecision; text-rendering:geometricPrecision; image-rendering:optimizeQuality; fill-rule:evenodd; clip-rule:evenodd" xmlns:xlink="http://www.w3.org/1999/xlink">
<g><path style="opacity:0.618" fill="#ff6f64" d="M 31.5,14.5 C 30.8333,14.1667 30.1667,13.8333 29.5,13.5C 26.5824,6.37191 21.5824,4.20525 14.5,7C 11.9408,8.50799 10.2741,10.6747 9.5,13.5C 8.83333,13.8333 8.16667,14.1667 7.5,14.5C 7.46836,6.87429 11.4684,3.20762 19.5,3.5C 27.5316,3.20762 31.5316,6.87429 31.5,14.5 Z"/></g>
<g><path style="opacity:0.792" fill="#ff7469" d="M 9.5,13.5 C 10.8096,18.6671 10.8096,23.8338 9.5,29C 8.21613,29.6838 7.04946,29.5171 6,28.5C 5.83333,26.1667 5.66667,23.8333 5.5,21.5C 5.52856,18.7305 6.19522,16.3972 7.5,14.5C 8.16667,14.1667 8.83333,13.8333 9.5,13.5 Z"/></g>
<g><path style="opacity:0.802" fill="#ff7469" d="M 29.5,13.5 C 30.1667,13.8333 30.8333,14.1667 31.5,14.5C 32.8048,16.3972 33.4714,18.7305 33.5,21.5C 34.2014,26.393 32.8681,30.5597 29.5,34C 27.8659,34.4935 26.1992,34.6602 24.5,34.5C 24.5,33.8333 24.5,33.1667 24.5,32.5C 26.5329,32.0512 28.1996,31.0512 29.5,29.5C 28.1709,24.1366 28.1709,18.8033 29.5,13.5 Z"/></g>
<g><path style="opacity:0.782" fill="#ff756c" d="M 2.5,16.5 C 3.77725,17.6936 4.44392,19.3603 4.5,21.5C 3.92358,27.9435 2.92358,27.9435 1.5,21.5C 1.72836,19.7927 2.0617,18.126 2.5,16.5 Z"/></g>
<g><path style="opacity:0.761" fill="#ff7369" d="M 34.5,16.5 C 35.7773,17.6936 36.4439,19.3603 36.5,21.5C 36.1667,23.1667 35.8333,24.8333 35.5,26.5C 34.513,23.2317 34.1796,19.8984 34.5,16.5 Z"/></g>
<g><path style="opacity:0.861" fill="#ff7063" d="M 24.5,32.5 C 24.5,33.1667 24.5,33.8333 24.5,34.5C 21.6085,35.4025 18.6085,35.7359 15.5,35.5C 15.5,34.1667 15.5,32.8333 15.5,31.5C 18.6085,31.2641 21.6085,31.5975 24.5,32.5 Z"/></g>
</svg>
