<svg xmlns="http://www.w3.org/2000/svg" xmlns:xlink="http://www.w3.org/1999/xlink" width="69" height="75" version="1.1" style="shape-rendering:geometricPrecision;text-rendering:geometricPrecision;image-rendering:optimizeQuality;fill-rule:evenodd;clip-rule:evenodd"><g><path style="opacity:.822" fill="#e3c1fd" d="M 34.5,13.5 C 34.3537,15.9424 35.187,16.6091 37,15.5C 38.2499,17.1935 39.7499,18.5268 41.5,19.5C 35.0908,18.0287 28.7575,16.362 22.5,14.5C 19.6571,13.2289 16.6571,12.3955 13.5,12C 11.4556,11.5017 10.1223,10.335 9.5,8.5C 10.9464,7.38705 12.6131,7.22039 14.5,8C 21.2337,9.64567 27.9004,11.479 34.5,13.5 Z"/></g><g><path style="opacity:.92" fill="#d0b0fe" d="M 34.5,13.5 C 42.5819,15.5823 50.5819,17.9156 58.5,20.5C 58.5,20.8333 58.5,21.1667 58.5,21.5C 56.9382,21.7329 55.6049,22.3995 54.5,23.5C 49.9996,22.409 45.6662,21.0757 41.5,19.5C 39.7499,18.5268 38.2499,17.1935 37,15.5C 35.187,16.6091 34.3537,15.9424 34.5,13.5 Z"/></g><g><path style="opacity:1" fill="#e8c6f4" d="M 13.5,18.5 C 26.8354,22.1675 40.1688,25.8342 53.5,29.5C 54.1667,30.1667 54.8333,30.8333 55.5,31.5C 51.1524,31.0907 46.819,30.9241 42.5,31C 43.8228,31.8159 44.4894,32.9826 44.5,34.5C 42.7541,32.7484 40.7541,31.4151 38.5,30.5C 37.609,29.8902 36.609,29.5569 35.5,29.5C 35.3893,28.8826 35.056,28.3826 34.5,28C 31.8333,27.3333 29.1667,27.3333 26.5,28C 25.0577,28.3768 24.0577,29.2101 23.5,30.5C 22.2101,31.0577 21.3768,32.0577 21,33.5C 20.4572,36.8678 20.6239,40.2011 21.5,43.5C 21.4226,44.7498 20.756,45.5831 19.5,46C 21.3008,46.3173 21.6341,46.984 20.5,48C 17.4686,48.4954 14.4686,48.3287 11.5,47.5C 10.86,37.4422 11.5267,27.7755 13.5,18.5 Z"/></g><g><path style="opacity:.196" fill="#ba93f8" d="M 9.5,8.5 C 10.1223,10.335 11.4556,11.5017 13.5,12C 16.6571,12.3955 19.6571,13.2289 22.5,14.5C 21.6552,19.3586 19.9886,19.692 17.5,15.5C 14.9386,18.1466 13.4386,17.48 13,13.5C 11.8978,14.949 10.7311,16.2823 9.5,17.5C 8.52693,19.9479 8.1936,22.6146 8.5,25.5C 8.15239,33.0566 7.15239,40.3899 5.5,47.5C 5.33346,35.1622 5.50012,22.8288 6,10.5C 6.81595,9.17723 7.98261,8.51056 9.5,8.5 Z"/></g><g><path style="opacity:1" fill="#9e83f6" d="M 22.5,14.5 C 28.7575,16.362 35.0908,18.0287 41.5,19.5C 45.6662,21.0757 49.9996,22.409 54.5,23.5C 54.6408,25.0681 54.9742,26.7348 55.5,28.5C 55.0431,29.2975 54.3764,29.6309 53.5,29.5C 40.1688,25.8342 26.8354,22.1675 13.5,18.5C 12.791,17.596 11.791,17.2627 10.5,17.5C 10.1667,17.5 9.83333,17.5 9.5,17.5C 10.7311,16.2823 11.8978,14.949 13,13.5C 13.4386,17.48 14.9386,18.1466 17.5,15.5C 19.9886,19.692 21.6552,19.3586 22.5,14.5 Z"/></g><g><path style="opacity:1" fill="#9f90d3" d="M 10.5,17.5 C 11.791,17.2627 12.791,17.596 13.5,18.5C 11.5267,27.7755 10.86,37.4422 11.5,47.5C 11.5,48.1667 11.5,48.8333 11.5,49.5C 11.1667,49.5 10.8333,49.5 10.5,49.5C 10.5,38.8333 10.5,28.1667 10.5,17.5 Z"/></g><g><path style="opacity:1" fill="#524cd0" d="M 9.5,17.5 C 9.83333,17.5 10.1667,17.5 10.5,17.5C 10.5,28.1667 10.5,38.8333 10.5,49.5C 10.19,50.7383 9.68999,50.7383 9,49.5C 8.50029,41.5069 8.33362,33.5069 8.5,25.5C 8.1936,22.6146 8.52693,19.9479 9.5,17.5 Z"/></g><g><path style="opacity:1" fill="#6356c7" d="M 58.5,20.5 C 60.1733,21.343 61.34,22.6763 62,24.5C 62.6667,37.5 62.6667,50.5 62,63.5C 61.1841,64.8228 60.0174,65.4894 58.5,65.5C 58.6666,52.1625 58.4999,38.8292 58,25.5C 56.4132,24.154 56.5798,22.8206 58.5,21.5C 58.5,21.1667 58.5,20.8333 58.5,20.5 Z"/></g><g><path style="opacity:.996" fill="#a388fa" d="M 58.5,21.5 C 56.5798,22.8206 56.4132,24.154 58,25.5C 58.4999,38.8292 58.6666,52.1625 58.5,65.5C 57.7261,66.1471 56.7261,66.4805 55.5,66.5C 38.4482,63.0636 21.9482,58.0636 6,51.5C 5.50999,50.2068 5.34332,48.8734 5.5,47.5C 7.15239,40.3899 8.15239,33.0566 8.5,25.5C 8.33362,33.5069 8.50029,41.5069 9,49.5C 9.68999,50.7383 10.19,50.7383 10.5,49.5C 10.8333,49.5 11.1667,49.5 11.5,49.5C 25.1545,54.3719 39.1545,58.3719 53.5,61.5C 54.1499,61.8039 54.8165,62.1373 55.5,62.5C 56.8232,52.0075 56.8232,41.6742 55.5,31.5C 54.8333,30.8333 54.1667,30.1667 53.5,29.5C 54.3764,29.6309 55.0431,29.2975 55.5,28.5C 54.9742,26.7348 54.6408,25.0681 54.5,23.5C 55.6049,22.3995 56.9382,21.7329 58.5,21.5 Z"/></g><g><path style="opacity:1" fill="#7f61a3" d="M 38.5,30.5 C 40.7541,31.4151 42.7541,32.7484 44.5,34.5C 44.5,34.8333 44.5,35.1667 44.5,35.5C 46.4656,39.9432 46.9656,44.6099 46,49.5C 44.2658,51.4506 42.0991,52.4506 39.5,52.5C 40.1667,51.1667 41.1667,50.1667 42.5,49.5C 43.1174,49.3893 43.6174,49.056 44,48.5C 44.8099,44.6425 44.6433,40.9758 43.5,37.5C 42.2213,34.8883 40.5547,32.5549 38.5,30.5 Z"/></g><g><path style="opacity:1" fill="#debff1" d="M 44.5,35.5 C 46.8881,36.2187 48.3881,37.8854 49,40.5C 51.0794,47.3988 52.5794,54.3988 53.5,61.5C 39.1545,58.3719 25.1545,54.3719 11.5,49.5C 11.5,48.8333 11.5,48.1667 11.5,47.5C 14.4686,48.3287 17.4686,48.4954 20.5,48C 21.6341,46.984 21.3008,46.3173 19.5,46C 20.756,45.5831 21.4226,44.7498 21.5,43.5C 23.6,46.1041 25.9334,48.6041 28.5,51C 32.0601,52.2367 35.7267,52.7367 39.5,52.5C 42.0991,52.4506 44.2658,51.4506 46,49.5C 46.9656,44.6099 46.4656,39.9432 44.5,35.5 Z"/></g><g><path style="opacity:1" fill="#891d77" d="M 43.5,37.5 C 44.6433,40.9758 44.8099,44.6425 44,48.5C 43.6174,49.056 43.1174,49.3893 42.5,49.5C 43.3597,45.5662 43.693,41.5662 43.5,37.5 Z"/></g><g><path style="opacity:1" fill="#e64aa6" d="M 32.5,30.5 C 33.791,30.7373 34.791,30.404 35.5,29.5C 36.609,29.5569 37.609,29.8902 38.5,30.5C 40.5547,32.5549 42.2213,34.8883 43.5,37.5C 43.693,41.5662 43.3597,45.5662 42.5,49.5C 41.1667,50.1667 40.1667,51.1667 39.5,52.5C 35.7267,52.7367 32.0601,52.2367 28.5,51C 25.9334,48.6041 23.6,46.1041 21.5,43.5C 20.6239,40.2011 20.4572,36.8678 21,33.5C 21.3768,32.0577 22.2101,31.0577 23.5,30.5C 26.6377,29.3187 29.6377,29.3187 32.5,30.5 Z"/></g><g><path style="opacity:1" fill="#deb4eb" d="M 41.5,44.5 C 41.2203,48.1133 39.2203,50.1133 35.5,50.5C 33.1643,49.999 31.1643,48.999 29.5,47.5C 33.3862,46.5098 37.3862,45.5098 41.5,44.5 Z"/></g><g><path style="opacity:1" fill="#eb44a4" d="M 39.5,40.5 C 39.5,41.5 39.5,42.5 39.5,43.5C 35.9975,44.9175 32.3309,45.5842 28.5,45.5C 28.5,41.5 28.5,37.5 28.5,33.5C 29.8734,33.3433 31.2068,33.51 32.5,34C 34.7581,36.4659 37.0914,38.6326 39.5,40.5 Z"/></g><g><path style="opacity:1" fill="#88559c" d="M 32.5,30.5 C 32.5,30.8333 32.5,31.1667 32.5,31.5C 26.9482,31.9106 24.7816,34.9106 26,40.5C 26.3736,42.4913 27.207,44.158 28.5,45.5C 32.3309,45.5842 35.9975,44.9175 39.5,43.5C 39.5,42.5 39.5,41.5 39.5,40.5C 40.1667,40.8333 40.8333,41.1667 41.5,41.5C 41.5,42.5 41.5,43.5 41.5,44.5C 37.3862,45.5098 33.3862,46.5098 29.5,47.5C 25.6002,45.2429 23.2668,41.7429 22.5,37C 23.8377,31.8373 27.171,29.6707 32.5,30.5 Z"/></g><g><path style="opacity:1" fill="#dbafe6" d="M 32.5,31.5 C 37.6141,32.9467 40.6141,36.28 41.5,41.5C 40.8333,41.1667 40.1667,40.8333 39.5,40.5C 37.0914,38.6326 34.7581,36.4659 32.5,34C 31.2068,33.51 29.8734,33.3433 28.5,33.5C 28.5,37.5 28.5,41.5 28.5,45.5C 27.207,44.158 26.3736,42.4913 26,40.5C 24.7816,34.9106 26.9482,31.9106 32.5,31.5 Z"/></g><g><path style="opacity:1" fill="#e7c7f8" d="M 55.5,31.5 C 56.8232,41.6742 56.8232,52.0075 55.5,62.5C 54.8165,62.1373 54.1499,61.8039 53.5,61.5C 52.5794,54.3988 51.0794,47.3988 49,40.5C 48.3881,37.8854 46.8881,36.2187 44.5,35.5C 44.5,35.1667 44.5,34.8333 44.5,34.5C 44.4894,32.9826 43.8228,31.8159 42.5,31C 46.819,30.9241 51.1524,31.0907 55.5,31.5 Z"/></g><g><path style="opacity:1" fill="#fa95d7" d="M 35.5,29.5 C 34.791,30.404 33.791,30.7373 32.5,30.5C 29.6377,29.3187 26.6377,29.3187 23.5,30.5C 24.0577,29.2101 25.0577,28.3768 26.5,28C 29.1667,27.3333 31.8333,27.3333 34.5,28C 35.056,28.3826 35.3893,28.8826 35.5,29.5 Z"/></g></svg>